<svg width="17.000000" height="20.000000" viewBox="0 0 17 20" fill="none" xmlns="http://www.w3.org/2000/svg" xmlns:xlink="http://www.w3.org/1999/xlink">
	<desc>
			Created with Pixso.
	</desc>
	<defs/>
	<path id="Vector - 0" d="M16.25 8C16.25 10.11 15.5 12.05 14.16 13.44C12.91 14.75 11.21 15.5 9.5 15.5C7.82 15.5 6.7 14.95 5.99 14.37L4.98 18.67C4.9 19.01 4.59 19.25 4.25 19.25C4.19 19.25 4.13 19.24 4.07 19.23C3.88 19.18 3.71 19.06 3.6 18.89C3.5 18.72 3.46 18.52 3.51 18.32L6.51 5.57C6.6 5.17 7.01 4.92 7.41 5.01C7.82 5.11 8.07 5.51 7.97 5.92L6.39 12.65C6.68 13.06 7.55 14 9.5 14C12.08 14 14.75 11.75 14.75 8C14.74 5.16 12.97 2.62 10.3 1.65C7.64 0.68 4.65 1.48 2.82 3.66C1 5.83 0.73 8.91 2.15 11.37C2.34 11.73 2.22 12.17 1.86 12.38C1.51 12.58 1.06 12.47 0.85 12.12C-0.88 9.12 -0.55 5.35 1.68 2.69C3.9 0.04 7.56 -0.94 10.82 0.24C14.08 1.43 16.24 4.53 16.25 8Z" fill="#A17D1C" fill-opacity="1.000000" fill-rule="evenodd"/>
</svg>
