<svg width="19.000000" height="20.000000" viewBox="0 0 19 20" fill="none" xmlns="http://www.w3.org/2000/svg" xmlns:xlink="http://www.w3.org/1999/xlink">
	<desc>
			Created with Pixso.
	</desc>
	<defs/>
	<path id="Vector - 0" d="M9 -0.25C3.61 -0.25 -0.75 4.11 -0.75 9.5C-0.75 14.88 3.61 19.25 9 19.25C14.38 19.25 18.75 14.88 18.75 9.5C18.74 4.11 14.38 -0.25 9 -0.25ZM9.75 17.71L9.75 11.75L12 11.75C12.41 11.75 12.75 11.41 12.75 11C12.75 10.58 12.41 10.25 12 10.25L9.75 10.25L9.75 8C9.75 7.17 10.42 6.5 11.25 6.5L12.75 6.5C13.16 6.5 13.5 6.16 13.5 5.75C13.5 5.33 13.16 5 12.75 5L11.25 5C9.59 5 8.25 6.34 8.25 8L8.25 10.25L6 10.25C5.58 10.25 5.25 10.58 5.25 11C5.25 11.41 5.58 11.75 6 11.75L8.25 11.75L8.25 17.71C3.85 17.31 0.55 13.52 0.75 9.12C0.95 4.71 4.58 1.24 9 1.24C13.41 1.24 17.04 4.71 17.24 9.12C17.44 13.52 14.14 17.31 9.75 17.71Z" fill="#A17D1C" fill-opacity="1.000000" fill-rule="evenodd"/>
</svg>
