<svg width="19.000000" height="20.000000" viewBox="0 0 19 20" fill="none" xmlns="http://www.w3.org/2000/svg" xmlns:xlink="http://www.w3.org/1999/xlink">
	<desc>
			Created with Pixso.
	</desc>
	<defs/>
	<path id="Vector - 0" d="M9 5C6.51 5 4.5 7.01 4.5 9.5C4.5 11.98 6.51 14 9 14C11.48 14 13.5 11.98 13.5 9.5C13.49 7.01 11.48 5 9 5ZM9 12.5C7.34 12.5 6 11.15 6 9.5C6 7.84 7.34 6.5 9 6.5C10.65 6.5 12 7.84 12 9.5C12 11.15 10.65 12.5 9 12.5ZM13.5 -0.25L4.5 -0.25C1.6 -0.25 -0.75 2.1 -0.75 5L-0.75 14C-0.75 16.89 1.6 19.24 4.5 19.25L13.5 19.25C16.39 19.24 18.74 16.89 18.75 14L18.75 5C18.74 2.1 16.39 -0.25 13.5 -0.25ZM17.25 14C17.25 16.07 15.57 17.75 13.5 17.75L4.5 17.75C2.42 17.75 0.75 16.07 0.75 14L0.75 5C0.75 2.92 2.42 1.25 4.5 1.25L13.5 1.25C15.57 1.25 17.25 2.92 17.25 5L17.25 14ZM15 4.62C15 5.24 14.49 5.75 13.87 5.75C13.25 5.75 12.75 5.24 12.75 4.62C12.75 4 13.25 3.5 13.87 3.5C14.49 3.5 15 4 15 4.62Z" fill="#A17D1C" fill-opacity="1.000000" fill-rule="evenodd"/>
</svg>
