<svg width="20.000000" height="18.000000" viewBox="0 0 20 18" fill="none" xmlns="http://www.w3.org/2000/svg" xmlns:xlink="http://www.w3.org/1999/xlink">
	<desc>
			Created with Pixso.
	</desc>
	<defs/>
	<path id="Vector - 0" d="M19.19 1.96C19.07 1.68 18.8 1.5 18.5 1.5L15.64 1.5C14.83 0.11 13.36 -0.74 11.75 -0.75C10.57 -0.77 9.43 -0.31 8.59 0.53C7.73 1.38 7.24 2.54 7.25 3.75L7.25 4.32C3.47 3.32 0.38 0.25 0.35 0.22C0.15 0.01 -0.16 -0.06 -0.44 0.04C-0.71 0.14 -0.9 0.39 -0.93 0.68C-1.33 5.16 -0.03 8.16 1.13 9.88C1.7 10.74 2.39 11.5 3.18 12.15C1.76 13.8 -0.49 14.66 -0.52 14.67C-0.73 14.75 -0.9 14.92 -0.97 15.14C-1.04 15.36 -1 15.6 -0.88 15.79C-0.81 15.89 -0.53 16.26 0.16 16.6C1.01 17.03 2.13 17.25 3.5 17.25C10.12 17.25 15.66 12.14 16.22 5.58L19.03 2.78C19.24 2.56 19.3 2.24 19.19 1.96ZM14.97 4.72C14.84 4.84 14.76 5.02 14.75 5.2C14.37 11.11 9.43 15.75 3.5 15.75C2.51 15.75 1.81 15.61 1.32 15.46C2.4 14.87 3.9 13.86 4.87 12.41C4.98 12.24 5.02 12.03 4.98 11.82C4.93 11.62 4.8 11.45 4.62 11.35C4.58 11.32 0.5 8.88 0.5 2.35C2 3.57 4.74 5.46 7.87 5.98C8.09 6.02 8.31 5.96 8.48 5.82C8.65 5.67 8.74 5.47 8.75 5.25L8.75 3.75C8.74 2.94 9.07 2.16 9.65 1.6C10.2 1.04 10.95 0.73 11.74 0.75C12.92 0.76 14.03 1.48 14.5 2.55C14.62 2.82 14.88 3 15.18 3L16.68 3L14.97 4.72Z" fill="#A17D1C" fill-opacity="1.000000" fill-rule="evenodd"/>
</svg>
